<svg xmlns="http://www.w3.org/2000/svg" width="1100" height="280" aria-label="Awesome Jev" role="img" viewBox="0 0 1100 280"><defs><linearGradient id="bgGrad" x1="0" x2="1" y1="0" y2="1"><stop offset="0%" stop-color="#0f150e"/><stop offset="50%" stop-color="#141c13"/><stop offset="100%" stop-color="#1b2419"/></linearGradient><radialGradient id="radarGlow" cx="880" cy="140" r="220" gradientUnits="userSpaceOnUse"><stop offset="0%" stop-color="#d7fa91" stop-opacity=".18"/><stop offset="50%" stop-color="#d7fa91" stop-opacity=".05"/><stop offset="100%" stop-color="#d7fa91" stop-opacity="0"/></radialGradient><radialGradient id="topGlow" cx="200" cy="40" r="300" gradientUnits="userSpaceOnUse"><stop offset="0%" stop-color="#7b5b28" stop-opacity=".12"/><stop offset="100%" stop-color="#7b5b28" stop-opacity="0"/></radialGradient><pattern id="grid" width="32" height="32" patternUnits="userSpaceOnUse"><path fill="none" stroke="#263422" stroke-opacity=".4" stroke-width=".75" d="M 32 0 L 0 0 0 32"/><circle cx="0" cy="0" r="1" fill="#43583b" fill-opacity=".5"/></pattern><linearGradient id="brassGrad" x1="0" x2="1" y1="0" y2="1"><stop offset="0%" stop-color="#f5dfa8"/><stop offset="50%" stop-color="#d9bc82"/><stop offset="100%" stop-color="#997b42"/></linearGradient></defs><rect width="1100" height="280" fill="url(#bgGrad)" rx="18"/><rect width="1100" height="280" fill="url(#grid)" rx="18"/><rect width="1100" height="280" fill="url(#radarGlow)" rx="18"/><rect width="1100" height="280" fill="url(#topGlow)" rx="18"/><rect width="1098" height="278" x="1" y="1" fill="none" stroke="#33442e" stroke-width="1.2" rx="17"/><g transform="translate(48, 36)"><rect width="300" height="28" fill="#1b251a" stroke="#3d4f37" stroke-width="1" rx="14"/><circle cx="14" cy="14" r="4.5" fill="#d7fa91"/><circle cx="14" cy="14" r="7.5" fill="none" stroke="#d7fa91" stroke-opacity=".4" stroke-width="1"/><text x="28" y="18" fill="#d7fa91" font-family="'JetBrains Mono', ui-monospace, monospace" font-size="11" font-weight="600" letter-spacing=".5">SYSTEM-1 アーキテクチャ · 100ms 未満の応答</text></g><text x="48" y="118" fill="#f4f7f0" font-family="'Inter', -apple-system, sans-serif" font-size="52" font-weight="800" letter-spacing="-1.5">Awesome Jev</text><text x="48" y="156" fill="#9ab090" font-family="'Inter', -apple-system, 'PingFang SC', 'Yu Gothic', 'Malgun Gothic', sans-serif" font-size="16" font-weight="400">System-1 Agent アーキテクチャ · 選択は Jev に</text><g><g transform="translate(48, 192) translate(0, 0)"><rect width="140" height="34" fill="#1a2419" stroke="#384a33" stroke-width="1" rx="8"/><text x="12" y="22" font-size="14">⚡</text><text x="32" y="21" fill="#d7fa91" font-family="'JetBrains Mono', monospace" font-size="12" font-weight="600">Choice</text><text x="82" y="21" fill="#798e72" font-family="sans-serif" font-size="10">離散選択</text></g><g transform="translate(48, 192) translate(150, 0)"><rect width="140" height="34" fill="#1a2419" stroke="#384a33" stroke-width="1" rx="8"/><text x="12" y="22" font-size="14">🎯</text><text x="32" y="21" fill="#d7fa91" font-family="'JetBrains Mono', monospace" font-size="12" font-weight="600">Score</text><text x="76" y="21" fill="#798e72" font-family="sans-serif" font-size="10">連続スコア</text></g><g transform="translate(48, 192) translate(300, 0)"><rect width="140" height="34" fill="#1a2419" stroke="#384a33" stroke-width="1" rx="8"/><text x="12" y="22" font-size="14">🛡️</text><text x="32" y="21" fill="#d7fa91" font-family="'JetBrains Mono', monospace" font-size="12" font-weight="600">Noul</text><text x="70" y="21" fill="#798e72" font-family="sans-serif" font-size="10">真偽値判定</text></g><g transform="translate(48, 192) translate(450, 0)"><rect width="158" height="34" fill="#231b12" stroke="#685026" stroke-width="1" rx="8"/><text x="12" y="22" font-size="13">⚡</text><text x="30" y="21" fill="#f0ca7d" font-family="'JetBrains Mono', monospace" font-size="11" font-weight="600">&lt; 100ms Latency</text></g></g><g transform="translate(880, 140)"><circle r="110" fill="none" stroke="#2c3b28" stroke-dasharray="4 4" stroke-width="1"/><circle r="80" fill="none" stroke="#34462f" stroke-width="1"/><circle r="50" fill="none" stroke="#3d5337" stroke-width="1"/><circle r="20" fill="none" stroke="#486241" stroke-width="1"/><line x1="-120" x2="120" y1="0" y2="0" stroke="#2c3b28" stroke-width="1"/><line x1="0" x2="0" y1="-120" y2="120" stroke="#2c3b28" stroke-width="1"/><line x1="-85" x2="85" y1="-85" y2="85" stroke="#243020" stroke-dasharray="2 3" stroke-width="1"/><line x1="-85" x2="85" y1="85" y2="-85" stroke="#243020" stroke-dasharray="2 3" stroke-width="1"/><path fill="#d7fa91" fill-opacity=".08" d="M 0 0 L 85 -75 A 110 110 0 0 1 110 0 Z"/><g transform="translate(45, -35)"><circle r="4" fill="#d7fa91"/><circle r="8" fill="none" stroke="#d7fa91" stroke-opacity=".5" stroke-width="1"/></g><g transform="translate(-55, 42)"><circle r="3.5" fill="#f0ca7d"/><circle r="7" fill="none" stroke="#f0ca7d" stroke-opacity=".4" stroke-width=".8"/></g><g transform="translate(68, 50)"><circle r="3" fill="#d7fa91" fill-opacity=".8"/></g><g transform="translate(-32, -65)"><circle r="3" fill="#d7fa91" fill-opacity=".7"/></g><g transform="translate(-24, -26) scale(0.32)"><rect width="120" height="110" x="15" y="20" fill="#1e271c" stroke="#5d7253" stroke-width="4" rx="28"/><circle cx="75" cy="72" r="32" fill="url(#brassGrad)" stroke="#1a201a" stroke-width="3"/><circle cx="75" cy="72" r="22" fill="#131912"/><circle cx="75" cy="72" r="12" fill="#d7fa91"/><circle cx="79" cy="68" r="4" fill="#fff"/><line x1="75" x2="75" y1="20" y2="-8" stroke="#d9bc82" stroke-linecap="round" stroke-width="4"/><circle cx="75" cy="-12" r="7" fill="#d7fa91"/></g><g transform="translate(-75, 95)"><rect width="150" height="24" fill="#182216" stroke="#41543a" stroke-width="1" rx="12"/><text x="75" y="16" fill="#d7fa91" font-family="'JetBrains Mono', monospace" font-size="10" font-weight="600" text-anchor="middle">691 VERIFIED REPOS</text></g></g></svg>